<?xml version="1.0" encoding="UTF-8"?>
<svg width="17px" height="14px" viewBox="0 0 17 14" version="1.1" xmlns="http://www.w3.org/2000/svg" xmlns:xlink="http://www.w3.org/1999/xlink">
    <!-- Generator: Sketch 52.5 (67469) - http://www.bohemiancoding.com/sketch -->
    <title>envelope</title>
    <desc>Created with Sketch.</desc>
    <g id="Page-1" stroke="none" stroke-width="1" fill="none" fill-rule="evenodd">
        <g id="Main-page(Kvass)" transform="translate(-1114.000000, -48.000000)" fill="#ABABAB">
            <g id="header">
                <g id="social" transform="translate(1105.000000, 37.000000)">
                    <g id="envelope" transform="translate(9.000000, 11.000000)">
                        <path d="M1.63166454,4.35956466 C1.84671225,4.52024816 2.49494553,4.99747851 3.5763976,5.79100942 C4.65788291,6.58454033 5.48637481,7.19553872 6.06190655,7.62403978 C6.12513828,7.67100989 6.25947665,7.77311269 6.4649881,7.93048893 C6.67053277,8.08797073 6.84132159,8.21522981 6.97722164,8.31230136 C7.11322138,8.40933773 7.27763053,8.51819579 7.47061525,8.63869961 C7.66353352,8.75909789 7.84538706,8.84966048 8.01614265,8.90961333 C8.18693147,8.97005876 8.34502742,9 8.49046374,9 L8.5,9 L8.50956949,9 C8.65500581,9 8.81316821,8.97002357 8.98395703,8.90961333 C9.15464617,8.84966048 9.33666585,8.75899234 9.52941797,8.63869961 C9.72226978,8.51805505 9.88667894,8.40930254 10.0226787,8.31230136 C10.1586784,8.21522981 10.3293343,8.08797073 10.5349454,7.93048893 C10.7404237,7.77297196 10.8749282,7.67100989 10.9381599,7.62403978 C11.5199052,7.19553872 12.9999531,6.1072748 15.3778385,4.35935356 C15.8394999,4.01796709 16.2252036,3.60603751 16.535049,3.12384627 C16.8451271,2.64186614 17,2.13624263 17,1.6072572 C17,1.16521046 16.8497125,0.786810841 16.5492704,0.472093541 C16.2488615,0.157305874 15.8930625,0 15.4821061,0 L1.51779425,0 C1.03084675,0 0.656108173,0.174088452 0.393644967,0.522265355 C0.131214989,0.870512625 0,1.30580412 0,1.82810466 C0,2.2499912 0.173978648,2.7071669 0.521769808,3.19935028 C0.869527741,3.69156884 1.23961448,4.07834215 1.63166454,4.35956466 Z" id="Path"></path>
                        <path d="M16.0511935,4.91191459 C13.9770106,6.46313865 12.4020351,7.66869575 11.3270312,8.5283289 C10.9665479,8.82171442 10.6741141,9.05073943 10.4495306,9.21485322 C10.2249471,9.37907714 9.9262666,9.54678895 9.55305721,9.7179152 C9.17998073,9.88929846 8.83228993,9.97473309 8.50968577,9.97473309 L8.50001661,9.97473309 L8.49048037,9.97473309 C8.16794266,9.97473309 7.8200525,9.88929846 7.44697602,9.7179152 C7.07389954,9.54678895 6.77501969,9.37907714 6.55050261,9.21485322 C6.32605199,9.05073943 6.03351856,8.82171442 5.67306847,8.5283289 C4.81922572,7.83655442 3.24763939,6.63092388 0.958243017,4.91191459 C0.597660014,4.64654223 0.278278902,4.34236265 0,4 L0,12.3226249 C0,12.7841261 0.1485594,13.1787702 0.445844336,13.5072181 C0.743062817,13.8357761 1.100456,14 1.51789096,14 L15.4822087,14 C15.899544,14 16.256904,13.8357761 16.5541557,13.5072181 C16.8515071,13.1786601 17,12.7841628 17,12.3226249 L17,4 C16.7280011,4.33527675 16.4118762,4.63945633 16.0511935,4.91191459 Z" id="Path"></path>
                    </g>
                </g>
            </g>
        </g>
    </g>
</svg>