<?xml version="1.0" encoding="UTF-8"?>
<svg width="157px" height="157px" viewBox="0 0 157 157" version="1.1" xmlns="http://www.w3.org/2000/svg" xmlns:xlink="http://www.w3.org/1999/xlink">
    <!-- Generator: Sketch 52.5 (67469) - http://www.bohemiancoding.com/sketch -->
    <title>Group</title>
    <desc>Created with Sketch.</desc>
    <g id="Page-1" stroke="none" stroke-width="1" fill="none" fill-rule="evenodd">
        <g id="icons" transform="translate(-127.000000, -65.000000)">
            <g id="Group-5" transform="translate(71.000000, 67.000000)">
                <g id="Group-4">
                    <g id="Group-2">
                        <g id="Group" transform="translate(58.000000, 0.000000)">
                            <circle id="Oval" stroke="#BBBBBB" stroke-width="4" cx="76.5" cy="76.5" r="76.5"></circle>
                            <path d="M78.7360255,112.119141 L34.5954005,112.119141 L34.5954005,105.527344 L56.9098536,78.9160156 C60.8812276,74.0982832 63.5748856,70.2653137 64.9909083,67.4169922 C66.406931,64.5686707 67.1149317,61.695978 67.1149317,58.7988281 C67.1149317,55.5110513 66.1546549,52.8173933 64.2340724,50.7177734 C62.3134898,48.6181536 59.6605216,47.5683594 56.275088,47.5683594 C52.0758482,47.5683594 48.877638,48.8541538 46.6803614,51.4257812 C44.4830848,53.9974087 43.384463,57.2037568 43.384463,61.0449219 L34.1071192,61.0449219 L34.009463,60.7519531 C33.8467018,54.9576533 35.7835313,50.0504758 39.8200099,46.0302734 C43.8564884,42.010071 49.3414596,40 56.275088,40 C62.622776,40 67.6194708,41.7577949 71.2653224,45.2734375 C74.9111739,48.7890801 76.7340724,53.3300503 76.7340724,58.8964844 C76.7340724,62.6399927 75.7005541,66.3020654 73.6334864,69.8828125 C71.5664188,73.4635596 68.4170362,77.9557021 64.1852442,83.359375 L46.2653224,104.355469 L46.3629786,104.599609 L78.7360255,104.599609 L78.7360255,112.119141 Z M118.237979,112.119141 L108.57001,112.119141 L108.57001,49.9121094 L93.0914942,50.0585938 L93.0914942,42.6367188 L118.237979,40 L118.237979,112.119141 Z" id="21" fill="#6D6D6D"></path>
                        </g>
                    </g>
                </g>
            </g>
        </g>
    </g>
</svg>