<?xml version="1.0" encoding="UTF-8"?>
<svg width="20px" height="20px" viewBox="0 0 20 20" version="1.1" xmlns="http://www.w3.org/2000/svg" xmlns:xlink="http://www.w3.org/1999/xlink">
    <!-- Generator: Sketch 52.5 (67469) - http://www.bohemiancoding.com/sketch -->
    <title>instagram-2</title>
    <desc>Created with Sketch.</desc>
    <g id="Page-1" stroke="none" stroke-width="1" fill="none" fill-rule="evenodd">
        <g id="Main-page(Kvass)" transform="translate(-1203.000000, -45.000000)" fill="#ABABAB" fill-rule="nonzero">
            <g id="header">
                <g id="social" transform="translate(1105.000000, 37.000000)">
                    <g id="Group-20" transform="translate(90.000000, 0.000000)">
                        <g id="instagram-2" transform="translate(9.000000, 9.000000)">
                            <path d="M13.1275635,0 L4.87243652,0 C2.18572998,0 0,2.18572998 0,4.87243652 L0,13.1277008 C0,15.81427 2.18572998,18 4.87243652,18 L13.1277008,18 C15.81427,18 18,15.81427 18,13.1277008 L18,4.87243652 C18,2.18572998 15.81427,9.99200722e-16 13.1275635,0 Z M16.9447632,13.1277008 C16.9447632,15.2324066 15.2324066,16.9447632 13.1275635,16.9447632 L4.87243652,16.9447632 C2.76759338,16.9447632 1.05523682,15.2324066 1.05523682,13.1277008 L1.05523682,4.87243652 C1.05523682,2.76759338 2.76759338,1.05523682 4.87243652,1.05523682 L13.1277008,1.05523682 C15.2324066,1.05523682 16.9447632,2.76759338 16.9447632,4.87243652 L16.9447632,13.1277008 Z" id="Shape" stroke="#ABABAB" stroke-width="0.5"></path>
                            <path d="M9,4 C6.24294765,4 4,6.24294765 4,9 C4,11.7570524 6.24294765,14 9,14 C11.7570524,14 14,11.7570524 14,9 C14,6.24294765 11.7570524,4 9,4 Z M9,12.9279835 C6.83420297,12.9279835 5.07201652,11.1659365 5.07201652,9 C5.07201652,6.83420297 6.83420297,5.07201652 9,5.07201652 C11.1659365,5.07201652 12.9279835,6.83420297 12.9279835,9 C12.9279835,11.1659365 11.1659365,12.9279835 9,12.9279835 Z" id="Shape" stroke="#ABABAB" stroke-width="0.5"></path>
                            <path d="M14.4999292,2 C13.6727728,2 13,2.67291441 13,3.49992919 C13,4.32708559 13.6727728,5 14.4999292,5 C15.3270856,5 16,4.32708559 16,3.49992919 C16,2.67277278 15.3270856,2 14.4999292,2 Z M14.4999292,3.91152446 C14.2730277,3.91152446 14.0883339,3.72683063 14.0883339,3.49992919 C14.0883339,3.27288607 14.2730277,3.08833387 14.4999292,3.08833387 C14.7269723,3.08833387 14.9116661,3.27288607 14.9116661,3.49992919 C14.9116661,3.72683063 14.7269723,3.91152446 14.4999292,3.91152446 Z" id="Shape"></path>
                        </g>
                    </g>
                </g>
            </g>
        </g>
    </g>
</svg>