<?xml version="1.0" encoding="UTF-8"?>
<svg width="15px" height="25px" viewBox="0 0 15 25" version="1.1" xmlns="http://www.w3.org/2000/svg" xmlns:xlink="http://www.w3.org/1999/xlink">
    <!-- Generator: Sketch 52.5 (67469) - http://www.bohemiancoding.com/sketch -->
    <title>beer</title>
    <desc>Created with Sketch.</desc>
    <g id="Page-1" stroke="none" stroke-width="1" fill="none" fill-rule="evenodd">
        <g id="Main-page(Kvass)" transform="translate(-483.000000, -7.000000)" fill="#0B142D">
            <g id="header">
                <g id="Group-11" transform="translate(443.000000, 0.000000)">
                    <g id="beer" transform="translate(40.000000, 7.000000)">
                        <path d="M14.7500074,2.84006479 C14.5871288,2.6799676 14.3707693,2.59179266 14.1406244,2.59179266 L14.1159324,2.59179266 L14.1159324,2.56479482 C14.1159324,1.62694384 13.3335946,0.863930886 12.3719908,0.863930886 C12.1226901,0.863930886 11.8800885,0.916306695 11.6553138,1.01727862 C11.2520481,0.641738661 10.7229971,0.431965443 10.1574617,0.431965443 C9.87405736,0.431965443 9.59796095,0.486717063 9.333214,0.595086393 C8.80394156,0.209611231 8.1630015,0 7.50002686,0 C6.83705223,0 6.19611217,0.209611231 5.66683973,0.595086393 C5.40209278,0.486717063 5.12594101,0.431965443 4.84259202,0.431965443 C4.27705666,0.431965443 3.74800568,0.641738661 3.34473994,1.01727862 C3.11996524,0.916306695 2.87736359,0.863930886 2.62806298,0.863930886 C1.66645911,0.863930886 0.884121361,1.62694384 0.884121361,2.56479482 L0.884121361,2.59184665 L0.858488187,2.59184665 C0.628675436,2.59184665 0.412537402,2.67985961 0.24999097,2.83968683 C0.0870569962,2.99983801 -0.00174561825,3.21187905 2.60049845e-05,3.43671706 C0.0412716083,8.56819654 0.8137547,11.2657667 1.56082607,13.874514 C2.27611895,16.3721922 3.01571629,18.9548596 3.09200681,23.750216 C3.10296873,24.4393089 3.68544523,25 4.39049591,25 L10.6095578,25 C11.3144978,25 11.8970296,24.4393629 11.9079916,23.750216 C11.9842821,18.9547516 12.7238794,16.3720842 13.4391723,13.874406 C14.1862437,11.2657127 14.9587268,8.56819654 14.9999724,3.43666307 C15.0017993,3.21209503 14.9129967,3.00021598 14.7500074,2.84006479 Z M0.839443237,3.41015119 C0.845090286,3.40453564 0.85151242,3.40178186 0.85854355,3.40178186 L1.74402299,3.40172786 C2.00251389,3.40172786 2.21283878,3.6075054 2.21283878,3.86069114 C2.21283878,4.56036717 2.79647791,5.12958963 3.51387459,5.12958963 C4.23127128,5.12958963 4.8149104,4.56036717 4.8149104,3.86042117 C4.8149104,3.6074514 5.02423876,3.40172786 5.28156704,3.40172786 L6.1688181,3.40172786 C6.42968962,3.40172786 6.64189686,3.60815335 6.64189686,3.86187905 L6.64189686,6.59989201 C6.51384172,6.64028078 6.40394572,6.68569114 6.30224347,6.72813175 C6.05698438,6.83050756 5.86326845,6.91144708 5.4312692,6.91144708 C4.99926995,6.91144708 4.80555402,6.83056156 4.56040565,6.72813175 C4.28131963,6.61160907 3.9649188,6.47948164 3.3625669,6.47948164 C2.76054718,6.47948164 2.44436779,6.61160907 2.1653925,6.72818575 C1.92041022,6.83056156 1.72691575,6.91144708 1.29524868,6.91144708 C1.18308278,6.91144708 1.08276462,6.90550756 0.989865122,6.89400648 C0.897962167,5.87759179 0.840993408,4.73882289 0.830474395,3.43039957 C0.830419031,3.42289417 0.833464009,3.41609071 0.839443237,3.41015119 Z M12.6393398,13.6565335 C11.9098739,16.2037257 11.1555499,18.837635 11.0776539,23.737581 C11.0736677,23.987095 10.863675,24.1900648 10.6095578,24.1900648 L4.39049591,24.1900648 C4.13632334,24.1900648 3.92633063,23.987095 3.92239984,23.737635 C3.84444842,18.837689 3.09017983,16.2037797 2.36071396,13.6565875 C1.84960066,11.8717063 1.35742158,10.1526458 1.07440477,7.71447084 C1.14538042,7.7187365 1.21834916,7.72138229 1.29524868,7.72138229 C1.89732376,7.72138229 2.21350314,7.58925486 2.49247844,7.47267819 C2.73746071,7.37030238 2.93095519,7.28941685 3.3625669,7.28941685 C3.79462151,7.28941685 3.98828208,7.37030238 4.23348581,7.47273218 C4.51257183,7.58930886 4.82897266,7.72138229 5.4312692,7.72138229 C6.0336211,7.72138229 6.35002193,7.58925486 6.62916332,7.47273218 C6.63348165,7.47095032 6.63763389,7.46922246 6.64189686,7.4674406 L6.64189686,12.0680346 C6.64189686,12.7677106 7.22553599,13.336933 7.94293267,13.336933 C8.66032935,13.336933 9.24396848,12.7677106 9.24396848,12.0680346 L9.24396848,11.2041037 C9.24396848,10.9803996 9.05811413,10.7991361 8.82874429,10.7991361 C8.59937444,10.7991361 8.41352009,10.9803996 8.41352009,11.2041037 L8.41352009,12.0680346 C8.41352009,12.3211123 8.20242011,12.5269978 7.94293267,12.5269978 C7.68344523,12.5269978 7.47234525,12.3211123 7.47234525,12.0680346 L7.47234525,3.86187905 C7.47234525,3.16155508 6.88759886,2.59179266 6.1688181,2.59179266 L5.28156704,2.59179266 C4.56632952,2.59179266 3.98446202,3.16090713 3.98446202,3.86069114 C3.98446202,4.1137689 3.77336203,4.31965443 3.51387459,4.31965443 C3.25438715,4.31965443 3.04328717,4.1137689 3.04328717,3.86042117 C3.04328717,3.16090713 2.46047849,2.59179266 1.74402299,2.59179266 L1.71456975,2.59179266 L1.71456975,2.56479482 C1.71456975,2.07354212 2.12436835,1.67386609 2.62806298,1.67386609 C2.82371662,1.67386609 3.01328031,1.73758099 3.17615892,1.85804536 C3.26435253,1.92327214 3.37541117,1.9512959 3.48508572,1.93639309 C3.59464954,1.92132829 3.69352826,1.86420086 3.75968732,1.77775378 C4.0206142,1.43720302 4.41529864,1.24190065 4.84259202,1.24190065 C5.07389958,1.24190065 5.30022444,1.30334773 5.51525521,1.42440605 C5.67121342,1.51225702 5.8672546,1.49206263 6.00095679,1.37440605 C6.41479691,1.01042117 6.94722505,0.809935205 7.50002686,0.809935205 C8.05282868,0.809935205 8.58525682,1.01042117 8.99898621,1.37440605 C9.13274376,1.49206263 9.32872958,1.51225702 9.48468779,1.42440605 C9.69977392,1.30334773 9.92615415,1.24190065 10.1574063,1.24190065 C10.5846997,1.24190065 10.9793842,1.43720302 11.240311,1.77780778 C11.3064701,1.86425486 11.4053488,1.92132829 11.5149126,1.93644708 C11.6246979,1.95140389 11.7356458,1.92332613 11.8238394,1.85809935 C11.9867181,1.73763499 12.1762817,1.67392009 12.3719354,1.67392009 C12.87563,1.67392009 13.2854286,2.07359611 13.2854286,2.56484881 L13.2854286,2.59179266 L13.2590757,2.59179266 C12.5410147,2.59179266 11.9567666,3.16101512 11.9567666,3.86069114 L11.9567666,4.72462203 C11.9567666,4.94832613 12.1426209,5.12958963 12.3719908,5.12958963 C12.6013606,5.12958963 12.7872149,4.94832613 12.7872149,4.72462203 L12.7872149,3.86069114 C12.7872149,3.60761339 12.9989239,3.40172786 13.2591311,3.40172786 L14.1406244,3.40172786 C14.1478769,3.40172786 14.1545759,3.40469762 14.1604998,3.41058315 C14.1665344,3.41646868 14.1695793,3.42316415 14.169524,3.43034557 C14.159005,4.73833693 14.1020916,5.87672786 14.010244,6.89292657 C13.9149085,6.90512959 13.8118775,6.91144708 13.6965559,6.91144708 C13.2653871,6.91144708 13.0721141,6.83061555 12.8274086,6.72818575 C12.8141768,6.72262419 12.8006128,6.71706263 12.7871596,6.71144708 L12.7871596,6.4524838 C12.7871596,6.2287797 12.6013052,6.0475162 12.3719354,6.0475162 C12.1425655,6.0475162 11.9567112,6.2287797 11.9567112,6.4524838 L11.9567112,6.95286177 C11.9544967,6.97726782 11.9543859,7.00156587 11.9567112,7.02548596 L11.9567112,7.31641469 C11.9567112,7.56949244 11.7456112,7.77537797 11.4861238,7.77537797 C11.2266363,7.77537797 11.0155364,7.56949244 11.0155364,7.31641469 L11.0155364,3.86069114 C11.0155364,3.16101512 10.4318419,2.59179266 9.71438981,2.59179266 C9.36704093,2.59179266 9.04050863,2.72316415 8.79502808,2.96166307 C8.54888318,3.20075594 8.41329864,3.51916847 8.413354,3.85820734 L8.41340937,7.20340173 C8.41329864,7.20728942 8.41340937,7.21117711 8.41340937,7.21506479 L8.41352009,9.47613391 C8.41352009,9.69983801 8.59942981,9.88110151 8.82874429,9.88110151 C9.05811413,9.88110151 9.24396848,9.69978402 9.24396848,9.47613391 L9.24391312,7.70685745 C9.34611363,7.71636069 9.45263248,7.72138229 9.56579492,7.72138229 C9.83923389,7.72138229 10.0532681,7.69395248 10.2319806,7.65318575 C10.3837312,8.18990281 10.888367,8.58531317 11.4861791,8.58531317 C12.1127801,8.58531317 12.6372913,8.15102592 12.7600316,7.57489201 C12.9878513,7.6550216 13.2703698,7.72138229 13.6966113,7.72138229 C13.7765004,7.72138229 13.852182,7.71857451 13.9257597,7.71398488 C13.6426875,10.1523758 13.1505084,11.8715443 12.6393398,13.6565335 Z M9.56579492,6.91144708 C9.4372415,6.91144708 9.33238355,6.90356371 9.24391312,6.89190065 L9.24385776,3.85815335 C9.24385776,3.73601512 9.2925774,3.62143629 9.38110319,3.53547516 C9.46990581,3.44924406 9.58832775,3.40172786 9.7145559,3.40172786 C9.97404334,3.40172786 10.1851433,3.60761339 10.1851433,3.86069114 L10.1851433,6.82483801 C10.0262509,6.87705184 9.84648647,6.91144708 9.56579492,6.91144708 Z" id="Shape" fill-rule="nonzero"></path>
                        <path d="M9.60526316,22 L5.39473684,22 C5.17668421,22 5,22.2238 5,22.5 C5,22.7762 5.17668421,23 5.39473684,23 L9.60526316,23 C9.82331579,23 10,22.7762 10,22.5 C10,22.2238 9.82331579,22 9.60526316,22 Z" id="Path"></path>
                    </g>
                </g>
            </g>
        </g>
    </g>
</svg>