<?xml version="1.0" encoding="UTF-8"?>
<svg width="124px" height="114px" viewBox="0 0 124 114" version="1.1" xmlns="http://www.w3.org/2000/svg" xmlns:xlink="http://www.w3.org/1999/xlink">
    <!-- Generator: Sketch 52.5 (67469) - http://www.bohemiancoding.com/sketch -->
    <title>Arsenyevsky_logobook</title>
    <desc>Created with Sketch.</desc>
    <g id="Symbols" stroke="none" stroke-width="1" fill="none" fill-rule="evenodd">
        <g id="footer" transform="translate(-165.000000, -25.000000)">
            <g id="Group-3">
                <g transform="translate(150.000000, 25.000000)">
                    <g id="Arsenyevsky_logobook" transform="translate(15.000000, 0.000000)">
                        <rect id="Rectangle" fill="#E2231A" x="82" y="70" width="2" height="40"></rect>
                        <g id="Group">
                            <path d="M42.0768293,42.1913621 L40.2621951,42.1913621 L40.2621951,20.0352159 C40.2621951,7.91561462 44.4585366,0.113621262 55.7621951,0.113621262 L68.1621951,0.113621262 C79.995122,0.113621262 83.8890244,7.99136213 83.8890244,19.6943522 L83.8890244,42.1534884 L82.0743902,42.1534884 L82.0743902,20.4518272 C82.0743902,9.73355482 78.9743902,1.89368771 68.1243902,1.89368771 L56.2536585,1.89368771 C45.4036585,1.89368771 42.0768293,9.69568106 42.0768293,20.4518272 L42.0768293,42.1913621 Z" id="Path" fill="#E2231A"></path>
                            <polygon id="Path" fill="#E2231A" points="42.1146341 110.9701 40.3 110.9701 40.3 70.9375415 42.0768293 70.9375415"></polygon>
                            <polygon id="Path" fill="#E2231A" points="50.4317073 39.5023256 53.8719512 37.3813953 53.8719512 39.8810631 50.4317073 42.0398671"></polygon>
                            <polygon id="Path" fill="#E2231A" points="45.1012195 37.3813953 48.5414634 39.5023256 48.5414634 42.0398671 45.1012195 39.8810631"></polygon>
                            <polygon id="Path" fill="#E2231A" points="53.8719512 34.351495 50.4317073 36.510299 50.4317073 33.9727575 53.8719512 31.8518272"></polygon>
                            <polygon id="Path" fill="#E2231A" points="45.1012195 31.8518272 48.5414634 33.9727575 48.5414634 36.510299 45.1012195 34.351495"></polygon>
                            <polygon id="Path" fill="#E2231A" points="53.8719512 28.1401993 50.4317073 30.2990033 50.4317073 27.7614618 53.8719512 25.6405316"></polygon>
                            <polygon id="Path" fill="#E2231A" points="45.1012195 25.6405316 48.5414634 27.7614618 48.5414634 30.2990033 45.1012195 28.1401993"></polygon>
                            <polygon id="Path" fill="#E2231A" points="53.8719512 21.9289037 50.4317073 24.0498339 50.4317073 21.5501661 53.8719512 19.3913621"></polygon>
                            <polygon id="Path" fill="#E2231A" points="45.1012195 19.3913621 48.5414634 21.5501661 48.5414634 24.0498339 45.1012195 21.9289037"></polygon>
                            <polygon id="Path" fill="#E2231A" points="70.2792683 37.3813953 70.2792683 37.3813953 73.7195122 39.5023256 73.7195122 42.0398671 70.2792683 39.8810631"></polygon>
                            <polygon id="Path" fill="#E2231A" points="79.05 39.8810631 75.6097561 42.0398671 75.6097561 39.5023256 79.05 37.3813953"></polygon>
                            <polygon id="Path" fill="#E2231A" points="75.6097561 33.9727575 79.05 31.8518272 79.05 34.351495 75.6097561 36.510299"></polygon>
                            <polygon id="Path" fill="#E2231A" points="70.2792683 25.6405316 70.2792683 25.6405316 73.7195122 27.7614618 73.7195122 30.2990033 70.2792683 28.1401993"></polygon>
                            <polygon id="Path" fill="#E2231A" points="73.7195122 33.9727575 73.7195122 36.510299 70.2792683 34.351495 70.2792683 31.8518272"></polygon>
                            <polygon id="Path" fill="#E2231A" points="75.6097561 27.7614618 79.05 25.6405316 79.05 28.1401993 75.6097561 30.2990033"></polygon>
                            <polygon id="Path" fill="#E2231A" points="70.2792683 19.3913621 70.2792683 19.3913621 73.7195122 21.5501661 73.7195122 24.0498339 70.2792683 21.9289037"></polygon>
                            <polygon id="Path" fill="#E2231A" points="75.6097561 21.5501661 79.05 19.3913621 79.05 21.9289037 75.6097561 24.0498339"></polygon>
                            <polygon id="Path" fill="#E2231A" points="75.1560976 113.848505 81.4695122 113.810631 78.2939024 111.045847"></polygon>
                            <polygon id="Path" fill="#E2231A" points="67.7085366 113.848505 74.0219512 113.810631 70.8463415 111.045847"></polygon>
                            <polygon id="Path" fill="#E2231A" points="50.1292683 113.848505 56.4426829 113.810631 53.2670732 111.045847"></polygon>
                            <polygon id="Path" fill="#E2231A" points="42.6817073 113.848505 48.995122 113.810631 45.8195122 111.045847"></polygon>
                            <path d="M50.6963415,109.644518 C50.6963415,108.924917 50.1292683,108.356811 49.4109756,108.356811 C48.6926829,108.356811 48.1256098,108.924917 48.1256098,109.644518 C48.1256098,110.36412 48.6926829,110.932226 49.4109756,110.932226 C50.1292683,110.932226 50.6963415,110.326246 50.6963415,109.644518" id="Path" fill="#E2231A"></path>
                            <polygon id="Path" fill="#E2231A" points="45.0256098 101.918272 45.0256098 104.342193 45.0256098 104.455814 48.4658537 106.576744 48.4658537 106.500997 48.4658537 104.077076 48.4658537 103.963455 45.0256098 101.842525"></polygon>
                            <polygon id="Path" fill="#E2231A" points="53.7963415 95.5933555 53.7963415 95.5933555 50.3560976 97.7521595 50.3560976 100.251827 53.7963415 98.130897"></polygon>
                            <polygon id="Path" fill="#E2231A" points="45.0256098 98.130897 48.4658537 100.251827 48.4658537 97.7521595 45.0256098 95.5933555"></polygon>
                            <polygon id="Path" fill="#E2231A" points="53.7963415 83.1707641 53.7963415 83.1707641 50.3560976 85.2916944 50.3560976 87.8292359 53.7963415 85.6704319"></polygon>
                            <polygon id="Path" fill="#E2231A" points="45.0256098 85.6704319 48.4658537 87.8292359 48.4658537 85.2916944 45.0256098 83.1707641"></polygon>
                            <polygon id="Path" fill="#E2231A" points="53.7963415 76.9215947 53.7963415 76.9215947 50.3560976 79.0803987 50.3560976 81.5800664 53.7963415 79.4591362"></polygon>
                            <polygon id="Path" fill="#E2231A" points="45.0256098 79.4591362 48.4658537 81.5800664 48.4658537 79.0803987 45.0256098 76.9215947"></polygon>
                            <polygon id="Path" fill="#E2231A" points="53.7963415 70.9754153 53.7963415 70.9754153 50.3560976 73.0963455 50.3560976 75.5960133 53.7963415 73.4750831"></polygon>
                            <polygon id="Path" fill="#E2231A" points="45.0256098 73.4750831 48.4658537 75.5960133 48.4658537 73.0963455 45.0256098 70.9754153"></polygon>
                            <polygon id="Path" fill="#E2231A" points="53.7963415 101.918272 53.7963415 101.918272 53.7963415 101.842525 50.3560976 103.963455 50.3560976 104.077076 50.3560976 106.500997 50.3560976 106.576744 53.7963415 104.455814"></polygon>
                            <path d="M75.8743902,109.644518 C75.8743902,108.924917 75.3073171,108.356811 74.5890244,108.356811 C73.8707317,108.356811 73.3036585,108.924917 73.3036585,109.644518 C73.3036585,110.36412 73.8707317,110.932226 74.5890244,110.932226 C75.3073171,110.932226 75.8743902,110.326246 75.8743902,109.644518" id="Path" fill="#E2231A"></path>
                            <polygon id="Path" fill="#E2231A" points="73.6439024 103.963455 70.2036585 101.842525 70.2036585 101.918272 70.2036585 104.342193 70.2036585 104.455814 73.6439024 106.576744 73.6439024 106.500997"></polygon>
                            <polygon id="Path" fill="#E2231A" points="73.6439024 97.7521595 70.2036585 95.5933555 70.2036585 98.130897 73.6439024 100.251827"></polygon>
                            <polygon id="Path" fill="#E2231A" points="78.9743902 95.5933555 75.5341463 97.7521595 75.5341463 100.251827 78.9743902 98.130897"></polygon>
                            <polygon id="Path" fill="#E2231A" points="73.6439024 85.2916944 70.2036585 83.1707641 70.2036585 85.6704319 73.6439024 87.8292359"></polygon>
                            <polygon id="Path" fill="#E2231A" points="78.9743902 83.1707641 75.5341463 85.2916944 75.5341463 87.8292359 78.9743902 85.6704319"></polygon>
                            <polygon id="Path" fill="#E2231A" points="73.6439024 79.0803987 70.2036585 76.9215947 70.2036585 79.4591362 73.6439024 81.5800664"></polygon>
                            <polygon id="Path" fill="#E2231A" points="78.9743902 76.9215947 75.5341463 79.0803987 75.5341463 81.5800664 78.9743902 79.4591362"></polygon>
                            <polygon id="Path" fill="#E2231A" points="53.7963415 89.3820598 53.7963415 89.3820598 50.3560976 91.5408638 50.3560976 94.0405316 53.7963415 91.9196013"></polygon>
                            <polygon id="Path" fill="#E2231A" points="45.0256098 91.9196013 48.4658537 94.0405316 48.4658537 91.5408638 45.0256098 89.3820598"></polygon>
                            <polygon id="Path" fill="#E2231A" points="53.7963415 83.1707641 53.7963415 83.1707641 50.3560976 85.2916944 50.3560976 87.8292359 53.7963415 85.6704319"></polygon>
                            <polygon id="Path" fill="#E2231A" points="45.0256098 85.6704319 48.4658537 87.8292359 48.4658537 85.2916944 45.0256098 83.1707641"></polygon>
                            <polygon id="Path" fill="#E2231A" points="73.6439024 91.5408638 70.2036585 89.3820598 70.2036585 91.9196013 73.6439024 94.0405316"></polygon>
                            <polygon id="Path" fill="#E2231A" points="78.9743902 89.3820598 75.5341463 91.5408638 75.5341463 94.0405316 78.9743902 91.9196013"></polygon>
                            <polygon id="Path" fill="#E2231A" points="73.6439024 85.2916944 70.2036585 83.1707641 70.2036585 85.6704319 73.6439024 87.8292359"></polygon>
                            <polygon id="Path" fill="#E2231A" points="78.9743902 83.1707641 75.5341463 85.2916944 75.5341463 87.8292359 78.9743902 85.6704319"></polygon>
                            <polygon id="Path" fill="#E2231A" points="73.6439024 73.0584718 70.2036585 70.9375415 70.2036585 73.4372093 73.6439024 75.5960133"></polygon>
                            <polygon id="Path" fill="#E2231A" points="78.9743902 70.9375415 75.5341463 73.0963455 75.5341463 75.5960133 78.9743902 73.4750831"></polygon>
                            <polygon id="Path" fill="#E2231A" points="78.9743902 104.342193 78.9743902 101.918272 78.9743902 101.842525 75.5341463 103.963455 75.5341463 106.500997 75.5341463 106.576744 78.9743902 104.455814"></polygon>
                            <path d="M70.0902439,8.71096346 C69.3719512,8.71096346 68.804878,9.27906977 68.804878,9.9986711 C68.804878,10.7182724 69.3719512,11.2863787 70.0902439,11.2863787 C70.8085366,11.2863787 71.3756098,10.7182724 71.3756098,9.9986711 C71.3756098,9.27906977 70.8085366,8.71096346 70.0902439,8.71096346" id="Path" fill="#E2231A"></path>
                            <path d="M55.1573171,9.9986711 C55.1573171,9.27906977 54.5902439,8.71096346 53.8719512,8.71096346 C53.1536585,8.71096346 52.5865854,9.27906977 52.5865854,9.9986711 C52.5865854,10.7182724 53.1536585,11.2863787 53.8719512,11.2863787 C54.5902439,11.2863787 55.1573171,10.7182724 55.1573171,9.9986711" id="Path" fill="#E2231A"></path>
                            <path d="M48.5792683,18.2551495 L50.3939024,18.2551495 C50.3939024,16.5508306 50.7341463,14.8843854 51.452439,13.3694352 L49.8268293,12.6119601 C48.995122,14.3920266 48.5792683,16.2857143 48.5792683,18.2551495" id="Path" fill="#E2231A"></path>
                            <path d="M66.4231707,9.27906977 L67.1036585,7.61262458 C63.9280488,6.32491694 60.2609756,6.32491694 57.0853659,7.61262458 L57.7658537,9.27906977 C60.4878049,8.1807309 63.6634146,8.1807309 66.4231707,9.27906977" id="Path" fill="#E2231A"></path>
                            <path d="M62.4158537,12.6119601 L61.7353659,12.6119601 C58.9756098,12.6119601 56.6695122,14.4299003 56.6695122,17.0431894 L56.6695122,41.2066445 C59.845122,42.4943522 64.3060976,42.4943522 67.4817073,41.2066445 L67.4817073,17.0431894 C67.4817073,14.4299003 65.1756098,12.6119601 62.4158537,12.6119601 M58.3329268,38.8963455 L58.3329268,18.2172757 C58.3329268,16.5887043 59.9963415,15.1873754 61.7353659,15.1873754 L62.4158537,15.1873754 C64.1926829,15.1873754 65.8560976,16.5887043 65.8560976,18.2172757 L65.8560976,38.8963455 C63.55,39.6538206 60.6390244,39.6538206 58.3329268,38.8963455" id="Shape" fill="#E2231A" fill-rule="nonzero"></path>
                            <path d="M67.4817073,69.1953488 C64.3060976,67.945515 59.8829268,67.9076412 56.7073171,69.1953488 L56.7073171,110.9701 L58.3707317,110.9701 L58.3707317,71.3162791 C60.7146341,70.558804 63.5878049,70.558804 65.9317073,71.3162791 L65.9317073,110.9701 L67.5573171,110.9701 L67.4817073,69.1953488 Z" id="Path" fill="#E2231A"></path>
                            <path d="M72.6987805,13.3694352 C73.4170732,14.9222591 73.7573171,16.5508306 73.7573171,18.2551495 L75.5719512,18.2551495 C75.5719512,16.2857143 75.1560976,14.3920266 74.3243902,12.6119601 L72.6987805,13.3694352 Z" id="Path" fill="#E2231A"></path>
                            <path d="M19.4317073,50.2584718 L19.4317073,56.4318937 L16.7853659,59.2345515 L13.4585366,59.2345515 L13.4585366,65.5973422 L11.3792683,65.5973422 L11.3792683,47.5315615 L16.7853659,47.5315615 L19.4317073,50.2584718 Z M15.8780488,57.1136213 L17.3146341,55.5986711 L17.3146341,51.1295681 L15.9158537,49.7282392 L13.4585366,49.7282392 L13.4585366,57.1136213 L15.8780488,57.1136213 Z" id="Shape" fill="#022A3A" fill-rule="nonzero"></path>
                            <polygon id="Path" fill="#022A3A" points="27.4841463 50.9401993 26.1609756 49.5767442 24.6865854 49.5767442 23.4012195 50.9401993 23.4012195 62.1887043 24.6865854 63.6657807 26.1609756 63.6657807 27.4841463 62.1887043 27.4841463 60.2571429 29.5634146 60.2571429 29.5634146 62.9461794 27.0682927 65.5973422 23.7792683 65.5973422 21.2841463 62.9461794 21.2841463 50.1069767 23.8170732 47.5315615 27.0682927 47.5315615 29.5634146 50.1069767 29.5634146 52.682392 27.4841463 52.682392"></polygon>
                            <polygon id="Path" fill="#022A3A" points="37.3890244 55.2956811 37.3890244 57.3787375 33.6085366 57.3787375 33.6085366 63.5521595 38.5231707 63.5521595 38.5231707 65.5973422 31.4914634 65.5973422 31.4914634 47.5315615 38.1829268 47.5315615 38.1829268 49.6524917 33.6085366 49.6524917 33.6085366 55.2956811"></polygon>
                            <polygon id="Path" fill="#022A3A" points="40.3 65.5973422 40.3 47.5315615 42.3792683 47.5315615 42.3792683 55.2578073 46.6512195 55.2578073 46.6512195 47.607309 48.7304878 47.607309 48.7304878 65.5973422 46.6512195 65.5973422 46.6512195 57.2651163 42.3792683 57.2651163 42.3792683 65.5973422"></polygon>
                            <rect id="Rectangle" fill="#022A3A" x="52.2085366" y="47.607309" width="2.07926829" height="18.027907"></rect>
                            <path d="M57.9170732,45.7136213 L55.5353659,45.7136213 L55.5353659,43.8956811 L57.9170732,43.8956811 L57.9170732,45.7136213 Z M57.3878049,47.5315615 L59.4670732,47.5315615 L59.4670732,65.6352159 L57.3878049,65.6352159 L57.3878049,47.5315615 Z M61.3195122,45.7136213 L58.9378049,45.7136213 L58.9378049,43.8956811 L61.3195122,43.8956811 L61.3195122,45.7136213 Z" id="Shape" fill="#022A3A" fill-rule="nonzero"></path>
                            <path d="M62.0756098,47.5315615 L67.1414634,47.5315615 L69.7121951,50.220598 L69.7121951,54.4245847 L68.4646341,55.9395349 L70.2036585,57.6438538 L70.2036585,63.0219269 L67.6329268,65.5973422 L62.1134146,65.5973422 L62.1134146,47.5315615 L62.0756098,47.5315615 Z M66.3853659,55.1063123 L67.595122,53.6671096 L67.595122,51.1295681 L66.2719512,49.8039867 L64.1926829,49.8039867 L64.1926829,55.1063123 L66.3853659,55.1063123 Z M64.1926829,63.5142857 L66.7256098,63.5142857 L68.0487805,62.1887043 L68.0487805,58.6664452 L66.5743902,57.2272425 L64.1926829,57.2272425 L64.1926829,63.5142857 Z" id="Shape" fill="#022A3A" fill-rule="nonzero"></path>
                            <polygon id="Path" fill="#022A3A" points="78.2560976 50.9401993 76.9329268 49.5767442 75.4207317 49.5767442 74.1353659 50.9401993 74.1353659 62.1887043 75.4585366 63.6657807 76.895122 63.6657807 78.2560976 62.1887043 78.2560976 60.2571429 80.3353659 60.2571429 80.3353659 62.9461794 77.8402439 65.5973422 74.5512195 65.5973422 72.0560976 62.9461794 72.0560976 50.1069767 74.5512195 47.5315615 77.8402439 47.5315615 80.3353659 50.1069767 80.3353659 52.682392 78.2560976 52.682392"></polygon>
                            <path d="M87.4804878,65.5973422 L82.0743902,65.5973422 L82.0743902,47.5315615 L84.1536585,47.5315615 L84.1536585,54.0458472 L87.4804878,54.0458472 L90.1268293,56.848505 L90.1268293,63.0219269 L87.4804878,65.5973422 Z M84.1914634,56.1289037 L84.1914634,63.5142857 L86.6487805,63.5142857 L88.047561,62.1129568 L88.047561,57.6438538 L86.6109756,56.1289037 L84.1914634,56.1289037 Z" id="Shape" fill="#022A3A" fill-rule="nonzero"></path>
                            <polygon id="Path" fill="#022A3A" points="94.7390244 54.6139535 96.2134146 54.6139535 99.502439 47.5315615 101.808537 47.5315615 98.0280488 55.6744186 102.337805 65.5973422 100.031707 65.5973422 96.2134146 56.69701 94.7390244 56.69701 94.7390244 65.5973422 92.6597561 65.5973422 92.6597561 47.5315615 94.7390244 47.5315615"></polygon>
                            <polygon id="Path" fill="#022A3A" points="103.85 65.5973422 103.85 47.5315615 105.967073 47.5315615 105.967073 53.7428571 105.626829 61.6963455 105.702439 61.6963455 107.781707 53.8564784 109.747561 47.5315615 112.582927 47.5315615 112.582927 65.5973422 110.465854 65.5973422 110.465854 56.5833887 110.806098 50.4099668 110.768293 50.4099668 109.180488 56.3940199 106.118293 65.5973422"></polygon>
                            <path d="M114.85122,65.5973422 L114.85122,47.5315615 L116.930488,47.5315615 L116.930488,53.7428571 L116.590244,61.7342193 L116.665854,61.7342193 L118.745122,53.8564784 L121.089024,47.5315615 L123.92439,47.5315615 L123.92439,65.5973422 L121.845122,65.5973422 L121.845122,56.5833887 L122.185366,50.4099668 L122.109756,50.4099668 L120.143902,57.1893688 L117.081707,65.6352159 L114.85122,65.5973422 Z M117.006098,44.9561462 L118.140244,43.7063123 L119.009756,44.4259136 L120.408537,44.4259136 L121.315854,43.7063123 L122.412195,44.9561462 L121.126829,46.3953488 L118.291463,46.3953488 L117.006098,44.9561462 Z" id="Shape" fill="#022A3A" fill-rule="nonzero"></path>
                            <path d="M2.91097561,47.5315615 L6.72926829,47.5315615 L9.3,65.5973422 L7.18292683,65.5973422 L6.5402439,60.4086379 L2.94878049,60.4086379 L2.26829268,65.5973422 L0.151219512,65.5973422 L2.91097561,47.5315615 Z M4.95243902,49.766113 L4.53658537,49.766113 L3.28902439,58.3255814 L6.27560976,58.3255814 L4.95243902,49.766113 Z" id="Shape" fill="#022A3A" fill-rule="nonzero"></path>
                            <rect id="Rectangle" fill="#022A3A" x="51.9817073" y="43.8956811" width="2.38170732" height="1.8179402"></rect>
                        </g>
                    </g>
                </g>
            </g>
        </g>
    </g>
</svg>