<?xml version="1.0" encoding="iso-8859-1"?>
<!-- Generator: Adobe Illustrator 16.0.0, SVG Export Plug-In . SVG Version: 6.00 Build 0)  -->
<!DOCTYPE svg PUBLIC "-//W3C//DTD SVG 1.1//EN" "http://www.w3.org/Graphics/SVG/1.1/DTD/svg11.dtd">
<svg version="1.1" id="Capa_1" xmlns="http://www.w3.org/2000/svg" xmlns:xlink="http://www.w3.org/1999/xlink" x="0px" y="0px"
	 width="476.306px" height="476.305px" viewBox="0 0 476.306 476.305" style="enable-background:new 0 0 476.306 476.305;"
	 xml:space="preserve">
<g>
	<path fill="#023753" d="M455.01,339.676c0.023-1.178,0.047-2.356,0.047-3.519c0-56.819-18.753-105.566-54.23-140.969
		c-34.783-34.709-84.412-54.544-144.316-57.877v-13.927c0-0.08-0.011-0.157-0.012-0.236h12.975c6.801,0,12.334-5.533,12.334-12.334
		V98.774c0-6.801-5.533-12.334-12.334-12.334h-62.639c-6.801,0-12.334,5.533-12.334,12.334v12.041
		c0,6.801,5.533,12.334,12.334,12.334h12.976c-0.001,0.079-0.012,0.156-0.012,0.236v13.939
		c-58.999,3.374-108.279,23.198-143.323,57.846c-18.053,17.848-31.972,39.233-41.372,63.563
		c-9.192,23.794-13.854,49.843-13.854,77.424c0,1.152,0.024,2.336,0.048,3.518C9.246,341.575,0,352.036,0,364.618
		c0,13.922,11.323,25.248,25.242,25.248H451.06c13.921,0,25.246-11.326,25.246-25.248
		C476.306,352.04,467.061,341.581,455.01,339.676z M206.499,110.816V98.775c0-0.172,0.162-0.334,0.334-0.334h62.64
		c0.172,0,0.334,0.162,0.334,0.334v12.041c0,0.172-0.162,0.334-0.334,0.334h-23.816c-0.486-0.059-0.979-0.098-1.48-0.098h-12.045
		c-0.502,0-0.994,0.039-1.48,0.098h-23.816C206.661,111.15,206.499,110.988,206.499,110.816z M231.797,123.386
		c0-0.088,0.046-0.173,0.112-0.236h12.487c0.065,0.063,0.111,0.148,0.111,0.236v13.479c-2.105-0.04-4.226-0.06-6.354-0.06
		c-2.131,0-4.249,0.021-6.356,0.062V123.386z M238.153,148.806c151.075,0,204.902,96.78,204.902,187.353
		c0,1.061-0.011,2.131-0.03,3.207H33.28c-0.021-1.082-0.032-2.152-0.032-3.207C33.248,222.346,113.678,148.806,238.153,148.806z
		 M451.058,377.868H25.241c-7.302,0-13.242-5.943-13.242-13.248c0-7.309,5.94-13.254,13.242-13.254h425.816
		c7.306,0,13.247,5.945,13.247,13.254C464.306,371.924,458.363,377.868,451.058,377.868z"/>
</g>
<g>
</g>
<g>
</g>
<g>
</g>
<g>
</g>
<g>
</g>
<g>
</g>
<g>
</g>
<g>
</g>
<g>
</g>
<g>
</g>
<g>
</g>
<g>
</g>
<g>
</g>
<g>
</g>
<g>
</g>
</svg>
