<svg xmlns="http://www.w3.org/2000/svg" width="35" height="43" viewBox="0 0 35 43">
    <g fill="#6D6D6D" fill-rule="evenodd">
        <path d="M22.83 18.84c.09.03.172.038.263.038.347 0 .668-.2.784-.523.256-.708 1.08-1.084 1.84-.846 1.617.508 3.382-.3 3.935-1.807.148-.4-.083-.838-.512-.977-.437-.139-.899.077-1.047.484-.256.708-1.08 1.085-1.84.847-1.617-.508-3.382.3-3.935 1.807-.149.4.082.838.511.977zM24.958 13.596a.78.78 0 0 0 .264.038c.346 0 .667-.2.783-.523.123-.346.387-.615.733-.777a1.522 1.522 0 0 1 1.105-.069c1.614.508 3.378-.3 3.93-1.807.149-.4-.082-.839-.52-.977-.427-.138-.897.077-1.046.485-.255.707-1.08 1.084-1.837.845a3.265 3.265 0 0 0-2.365.146 2.96 2.96 0 0 0-1.566 1.662c-.148.4.083.838.52.977zM27.067 8.358a.93.93 0 0 0 .26.032c.341 0 .658-.168.772-.439.186-.439.788-.67 1.34-.522a3.36 3.36 0 0 0 2.047-.104c.642-.251 1.12-.684 1.348-1.226.147-.336-.08-.703-.503-.82-.422-.116-.885.065-1.032.407-.09.213-.276.38-.536.484a1.27 1.27 0 0 1-.804.039c-1.397-.375-2.924.219-3.403 1.33-.139.335.089.703.511.819z"/>
        <path fill-rule="nonzero" d="M32.48 18.941c1.547-4.889 2.394-9.68 2.519-14.244.031-1.309-.552-2.792-1.454-3.7-1.081-1.075-2.55-1.302-3.997-.576-2.325 1.173-3.99 4.602-5.326 7.364-.078.16-.156.318-.226.47a4.41 4.41 0 0 0-2.465-3.035c-.303-1.408-1.446-2.505-2.884-2.793a2.844 2.844 0 0 0-.063-.234C18.29 1.209 17.394.467 16.36.346a2.69 2.69 0 0 0-1.656.333A2.896 2.896 0 0 0 13.328.33c-1.353 0-2.488.915-2.784 2.15-1.477.393-2.566 1.71-2.574 3.246-1.687.424-2.915 1.907-2.915 3.67 0 .47.093.932.264 1.37a2.95 2.95 0 0 0-.677 1.877c0 .416.086.818.257 1.18-.778-.824-1.866-1.498-3.095-1.453-.427.016-.77.364-.754.78a.771.771 0 0 0 .778.734h.078c.73 0 1.407.47 1.897 1.014-1.236.348-2.722.908-3.413 2.18-.42.764-.467 1.703-.195 2.777-.14.22-.202.477-.194.757l1.33 18.293C1.454 41.199 3.398 43 5.754 43H27.58c2.364 0 4.308-1.8 4.424-4.079l1.361-18.959a.964.964 0 0 0-.28-.734.993.993 0 0 0-.607-.287zm-7.846-8.522c.31-.56.645-1.256 1.003-1.99 1.166-2.415 2.768-5.722 4.626-6.653.84-.424 1.556-.333 2.17.28.692.689 1.034 1.831 1.019 2.603-.117 4.473-.956 9.18-2.496 13.994-.047.16-.163.477-.319.916l-1.322.575c-.03.015-.054.03-.085.046-.373.22-.809.325-1.244.333a2.567 2.567 0 0 1-1.244-.333l-.552-.326a4.11 4.11 0 0 0-2.068-.56c-.195 0-.39.015-.584.046a4.072 4.072 0 0 0-1.532.514l-.552.326a2.534 2.534 0 0 1-.995.302c.016-.06.039-.113.055-.166.217-.711.45-1.423.692-2.12.085-.256.178-.506.272-.764.202-.552.412-1.105.638-1.65.093-.234.186-.469.279-.696a44.818 44.818 0 0 1 2.239-4.677zM14.417 9.14a.321.321 0 0 1-.382-.242c-.038-.167.078-.333.25-.371l4.362-.924c.148 0 .28.106.318.25a.292.292 0 0 1-.046.235.306.306 0 0 1-.203.136l-4.3.916zm.303 3.073c.093-.114.179-.227.264-.334a1.58 1.58 0 0 0 .311-1.37l3.243-.688c.023.098.047.189.086.28.147.348.404.636.77.84.116.06.24.129.365.19.1.052.21.113.318.166.055.03.102.053.156.083.093.053.179.106.272.16.078.045.156.09.226.143.085.06.17.121.249.19l.21.18a2.849 2.849 0 0 1 .544.674c-.327.712-.638 1.43-.941 2.158l-.14.333c-.856.211-1.68.605-2.69 1.31-1.284.885-2.24 1.12-3.81.9l-.475-2.104c-.327-1.416.373-2.279 1.042-3.111zm-.226 6.773c.226.015.443.038.653.038 1.353 0 2.45-.393 3.702-1.264a9.066 9.066 0 0 1 1.08-.65l-.21.59c-.047.143-.1.28-.155.423a90.473 90.473 0 0 0-.653 2.036l-.514-.302a4.11 4.11 0 0 0-2.068-.56c-.187 0-.373.015-.56.045l-.132.023-.257.045a3.673 3.673 0 0 0-.746.235l-.14-.659zm-7.729-7.492l.506-.409-.335-.552a2.208 2.208 0 0 1-.319-1.143c0-1.226.988-2.226 2.248-2.278l.94-.038-.217-.893a1.734 1.734 0 0 1-.054-.44c0-.976.785-1.793 1.78-1.869l.716-.052v-.757c.023-.681.598-1.226 1.306-1.226.404 0 .7.181.87.333l.545.477.521-.5c.241-.227.56-.34.91-.303.42.046.793.364.917.772.04.136.055.265.04.401l-.094.848h.878c1.12 0 2.053.848 2.131 1.938l.039.5.482.166c1.213.416 2.014 1.536 1.99 2.785a2.586 2.586 0 0 1-.512 1.498c-.522-.431-1.082-.719-1.556-.961a5.215 5.215 0 0 1-.358-.19c-.03-.014-.07-.052-.085-.128a.425.425 0 0 1 .109-.333c.342-.386.474-.908.365-1.4l-.093-.416C20.248 6.476 19.33 5.9 18.46 6.09l-.218.046h-.007l-2.287.484-2.224.477c-.894.19-1.461 1.052-1.267 1.922l.047.204.047.205c.116.507.474.93.964 1.135.124.053.225.143.256.242.024.053.008.083-.039.159-.077.099-.163.204-.24.31-.086.106-.18.22-.265.333-.031.038-.054.076-.086.106-.07.091-.132.182-.202.273-.031.045-.062.098-.101.143-.062.091-.117.182-.171.28l-.093.16c-.063.105-.11.219-.164.332a.817.817 0 0 0-.062.144c-.07.167-.132.34-.179.523-.008.03-.008.06-.016.083-.038.159-.07.318-.085.484-.008.068-.008.136-.016.205-.008.09-.015.174-.015.264-.024-.03-.047-.053-.07-.083-.055-.068-.102-.121-.156-.19a9.375 9.375 0 0 0-.52-.567 7.04 7.04 0 0 0-.366-.333c-.047-.038-.094-.084-.14-.121a5.326 5.326 0 0 0-.498-.349c-.046-.03-.1-.052-.155-.083a2.664 2.664 0 0 0-.366-.174 2.157 2.157 0 0 0-.202-.076c-.109-.038-.226-.068-.334-.098l-.203-.045a2.634 2.634 0 0 0-.427-.038c-.031 0-.063-.008-.102-.008-.808 0-1.547.31-2.192.719a1.455 1.455 0 0 1-.109-.545c.008-.423.21-.84.568-1.119zm-5 6.281c.327-.605 1.128-1.067 2.512-1.453a4.28 4.28 0 0 0 1.742-.968c.217-.205.42-.379.622-.538.179-.144.35-.265.513-.37.008-.009.016-.009.016-.009.326-.204.63-.34.91-.416.007 0 .023-.007.03-.007.14-.03.273-.053.405-.053.98 0 2.03.946 3.118 2.823.575.984.762 2.43.513 3.693l-.17-.023a2.406 2.406 0 0 1-.794-.28l-.552-.325a4.107 4.107 0 0 0-2.068-.56c-.195 0-.389.015-.583.046a4.075 4.075 0 0 0-1.532.514l-.272.16a3.078 3.078 0 0 1-1.524.408 3.016 3.016 0 0 1-1.532-.394l-1.05-.613a1.38 1.38 0 0 0-.435-.159c-.118-.605-.079-1.09.131-1.476zm28.693 21.056c-.078 1.49-1.338 2.656-2.87 2.656H5.763c-1.532 0-2.791-1.165-2.877-2.671l-1.29-17.892.676.394a4.666 4.666 0 0 0 2.379.62 4.689 4.689 0 0 0 2.38-.62l.271-.16c.374-.219.81-.325 1.245-.332.435.007.863.113 1.244.333l.552.325c.474.28 1.01.447 1.563.515a4.4 4.4 0 0 0 .933.022c.031 0 .054-.015.086-.022a4.012 4.012 0 0 0 1.47-.47c.046-.014.092-.014.14-.037l.551-.326c.373-.22.809-.325 1.244-.333.436.008.863.114 1.244.333l.553.326c.52.303 1.103.47 1.702.522.032 0 .055.007.086.015h.008a.68.68 0 0 1 .062.008h.155a4.645 4.645 0 0 0 1.066-.121c.03-.008.07-.016.1-.023.359-.09.7-.212 1.02-.401l.552-.326c.373-.22.808-.325 1.244-.333.435.008.863.114 1.244.333l.552.326c.466.272.988.446 1.524.514.194.03.396.046.59.046.708 0 1.408-.182 2.022-.53l1.524-.658c.032-.015.055-.046.086-.06l.117-.053-1.322 18.08z"/>
        <path d="M5.067 32.512h5.774c.454 0 .826-.236.826-.524 0-.289-.372-.525-.826-.525H5.067c-.453 0-.825.236-.825.525 0 .288.371.524.825.524zM5.014 34.61h6.942c.424 0 .771-.236.771-.525 0-.288-.347-.524-.771-.524H5.014c-.424 0-.772.236-.772.524 0 .289.347.525.772.525zM13.053 36.707H4.977c-.404 0-.735.236-.735.525 0 .288.33.524.735.524h8.077c.403 0 .734-.235.734-.524 0-.289-.33-.525-.735-.525zM18.295 36.707h-1.59c-.438 0-.796.236-.796.525 0 .288.358.524.795.524h1.591c.438 0 .796-.235.796-.524 0-.289-.358-.525-.796-.525z"/>
    </g>
</svg>
