<svg xmlns="http://www.w3.org/2000/svg" width="24" height="28" viewBox="0 0 24 28">
    <g fill="#023753" fill-rule="evenodd" opacity=".599">
        <path fill-rule="nonzero" d="M23.226 2.803C20.024.486 14.829 0 11.036 0 8.472 0 5.774.142 5.573.142H1.584C.709.142 0 .9 0 1.832v10.831c0 .932.709 1.688 1.584 1.688.873 0 1.426-.756 1.426-2.535V2.678l1.373.843v22.495C4.383 27.11 5.22 28 6.246 28h12.833c1.026 0 1.86-.89 1.86-1.984 0-.14.043-14.198 2.728-21.713L24 3.367l-.774-.564zM18.57 25.467H6.759V2.94c.055-.068.107-.137.152-.212a43.97 43.97 0 0 1 4.126-.193c3.146 0 7.316.34 10.076 1.875-2.25 7.24-2.512 18.423-2.543 21.057z"/>
        <path d="M9 6.5c0 .253.383.457.857.457h7.286c.474 0 .857-.204.857-.457 0-.252-.383-.457-.857-.457H9.855c-.472 0-.855.204-.855.457zM14.162 10.957c.464 0 .838-.205.838-.458 0-.252-.374-.456-.838-.456H9.838c-.464 0-.838.205-.838.457s.374.457.838.457h4.324zM17.143 14.043H9.857c-.472 0-.857.204-.857.456 0 .253.383.458.857.458h7.286c.474 0 .857-.205.857-.458 0-.251-.383-.456-.857-.456zM14.162 17.043H9.838c-.464 0-.838.204-.838.457 0 .252.374.457.838.457h4.324c.464 0 .838-.205.838-.457 0-.253-.374-.457-.838-.457z"/>
    </g>
</svg>
