<?xml version="1.0" encoding="UTF-8"?>
<svg width="13px" height="30px" viewBox="0 0 13 30" version="1.1" xmlns="http://www.w3.org/2000/svg" xmlns:xlink="http://www.w3.org/1999/xlink">
    <!-- Generator: Sketch 52.5 (67469) - http://www.bohemiancoding.com/sketch -->
    <title>water</title>
    <desc>Created with Sketch.</desc>
    <g id="Page-1" stroke="none" stroke-width="1" fill="none" fill-rule="evenodd">
        <g id="Main-page(Kvass)" transform="translate(-758.000000, -4.000000)" fill="#0B142D">
            <g id="header">
                <g id="Group-11" transform="translate(443.000000, 0.000000)">
                    <g id="water" transform="translate(315.000000, 4.000000)">
                        <path d="M12.9945424,19.9020512 C12.9945424,19.2346124 12.6853724,18.6399467 12.2002805,18.2582099 C12.6853144,17.8764731 13,17.2818075 13,16.6143687 C13,15.9116566 12.6396211,15.2895106 12.1100551,14.9117582 C12.6432208,14.4867208 12.9727118,13.8291843 12.9727118,13.0918434 L12.9727118,8.71520033 L8.79766956,3.22897176 L9.7150188,3.22897176 L9.7150188,0 L3.25769296,0 L3.25769296,3.22897176 L4.23316034,3.22897176 L0,8.71520033 L0,13.0919606 C0,13.8293014 0.357708145,14.4867793 0.890873849,14.9118753 C0.36130787,15.2896278 0.0218305896,15.9117152 0.0218305896,16.6144859 C0.0218305896,17.2819247 0.338316079,17.8765903 0.823349977,18.2583271 C0.338316079,18.6400639 0.027288237,19.2347296 0.027288237,19.9021684 C0.027288237,20.6048804 0.360378909,21.2270265 0.889944888,21.6047789 C0.356779184,22.0298163 0,22.6873528 0,23.4246937 L0,27.1820032 C0,28.4606896 1.0599448,29.5303143 2.32693184,29.5303143 L4.65386367,29.5303143 L4.65386367,29.4917012 C5.04118246,29.7917 5.52517128,30 6.05003439,30 L6.98079551,30 C7.50565862,30 7.98964744,29.7917586 8.37696623,29.4917012 L8.37696623,29.5303143 L10.7038981,29.5303143 C11.9709432,29.5303143 12.9726537,28.460631 12.9726537,27.1820032 L12.9726537,23.4246937 C12.9726537,22.6873528 12.6440337,22.0298749 12.110868,21.6047789 C12.640492,21.2269679 12.9945424,20.6048219 12.9945424,19.9020512 Z M4.13033594,2.34831114 L4.13033594,0.880602029 L8.84243388,0.880602029 L8.84243388,2.34831114 L4.13033594,2.34831114 Z M5.33409556,3.22897176 L7.69667628,3.22897176 L11.6793654,8.45399041 L1.35140639,8.45399041 L5.33409556,3.22897176 Z M10.9366609,18.7278956 C11.5942494,18.7278956 12.1292149,19.2677763 12.1292149,19.9314065 C12.1292149,20.5950367 11.5942494,21.1349174 10.9366609,21.1349174 L9.773195,21.1349174 L9.773195,22.0155195 L10.7039561,22.0155195 C11.4898574,22.0155195 12.1001268,22.631396 12.1001268,23.4245179 L12.1001268,27.1818274 C12.1001268,27.9749493 11.4899154,28.6495365 10.7039561,28.6495365 L9.0678231,28.6495365 C9.20281279,28.2972723 9.27869731,27.9971563 9.27869731,27.6515131 L8.40611239,27.6515131 C8.40611239,28.444635 7.7667548,29.1192222 6.98085357,29.1192222 L6.05003439,29.1192222 C5.26419122,29.1192222 4.62477558,28.4446936 4.62477558,27.6515131 L3.75219065,27.6515131 C3.75219065,27.9972149 3.82807517,28.2973309 3.96306486,28.6495365 L2.32693184,28.6495365 C1.54108867,28.6495365 0.872584924,27.9750079 0.872584924,27.1818274 L0.872584924,23.4245179 C0.872584924,22.631396 1.54103061,22.0155195 2.32693184,22.0155195 L6.98085357,22.0155195 L6.98085357,21.1349174 L2.0942851,21.1349174 C1.43669665,21.1349174 0.901731084,20.5950367 0.901731084,19.9314065 C0.901731084,19.2677763 1.43669665,18.7278956 2.0942851,18.7278956 L6.98085357,18.7278956 L6.98085357,17.8472936 L2.0942851,17.8472936 C1.43669665,17.8472936 0.901731084,17.3074129 0.901731084,16.6437826 C0.901731084,15.9801524 1.43669665,15.4402717 2.0942851,15.4402717 L6.98085357,15.4402717 L6.98085357,14.5596697 L2.32693184,14.5596697 C1.54108867,14.5596697 0.872584924,13.8851411 0.872584924,13.0919606 L0.872584924,9.33465104 L12.1001268,9.33465104 L12.1001268,13.0919606 C12.1001268,13.8850825 11.4899154,14.5596697 10.7039561,14.5596697 L9.773195,14.5596697 L9.773195,15.4402717 L10.9366609,15.4402717 C11.5942494,15.4402717 12.1292149,15.9801524 12.1292149,16.6437826 C12.1292149,17.3074129 11.5942494,17.8472936 10.9366609,17.8472936 L9.773195,17.8472936 L9.773195,18.7278956 L10.9366609,18.7278956 Z" id="Shape" fill-rule="nonzero"></path>
                        <rect id="Rectangle" x="3" y="7" width="1" height="1"></rect>
                        <rect id="Rectangle" x="4" y="6" width="1" height="1"></rect>
                        <rect id="Rectangle" x="8" y="18" width="1" height="1"></rect>
                        <rect id="Rectangle" x="8" y="14" width="1" height="1"></rect>
                        <rect id="Rectangle" x="8" y="21" width="1" height="1"></rect>
                    </g>
                </g>
            </g>
        </g>
    </g>
</svg>